<?xml version="1.0" encoding="UTF-8"?><svg id="b" xmlns="http://www.w3.org/2000/svg" width="563.23" height="110.04" viewBox="0 0 563.23 110.04"><g id="c"><path d="M434.91,56.84c-.69.72-1.42,1.42-2.19,2.09-13.11,11.36-32.95,9.94-44.31-3.17s-9.94-32.95,3.17-44.31c10.87-9.42,26.36-10.04,37.82-2.51-13.28-11.71-33.5-12.09-47.25-.18-15,13-16.63,35.69-3.63,50.69,13,15,35.69,16.63,50.69,3.63,2.19-1.89,4.08-4,5.69-6.25Z" fill="#235789" stroke-width="0"/><polygon points="424.87 66.14 417.84 69.4 420.61 75.94 427.63 72.68 424.87 66.14" fill="#235789" stroke-width="0"/><path d="M443.57,103.05l-12.98-27.3c-.44-.92-1.51-1.31-2.44-.89l-6.51,2.93c-.95.43-1.42,1.54-1.06,2.52l10.44,28.51c.38,1.03,1.52,1.51,2.52,1.05l9.05-4.14c1.01-.46,1.46-1.68.98-2.68Z" fill="#235789" stroke-width="0"/><path d="M0,72.81V1.56h13.85v71.26H0Z" fill="#ca0016" stroke-width="0"/><path d="M24.39,36.68c0-4.35.79-8.65,2.36-12.9,1.57-4.25,3.86-8.04,6.88-11.39,3.01-3.34,6.69-6.05,11.04-8.13,4.35-2.07,9.3-3.11,14.85-3.11,6.56,0,12.23,1.44,17.01,4.32,4.78,2.88,8.35,6.62,10.69,11.24l-10.64,7.33c-.94-2.01-2.07-3.7-3.41-5.07-1.34-1.37-2.78-2.46-4.32-3.26-1.54-.8-3.15-1.39-4.82-1.76-1.67-.37-3.31-.55-4.92-.55-3.48,0-6.51.7-9.08,2.11-2.58,1.4-4.72,3.23-6.42,5.47-1.71,2.24-3,4.78-3.86,7.63-.87,2.84-1.3,5.67-1.3,8.48,0,3.15.5,6.17,1.51,9.08,1,2.91,2.42,5.47,4.27,7.68,1.84,2.21,4.05,3.98,6.62,5.32,2.58,1.34,5.4,2.01,8.48,2.01,1.61,0,3.28-.2,5.02-.6,1.74-.4,3.4-1.04,4.97-1.91,1.57-.87,3.03-1.99,4.37-3.36,1.34-1.37,2.41-3.03,3.21-4.97l11.34,6.52c-1.14,2.68-2.76,5.04-4.87,7.08-2.11,2.04-4.48,3.76-7.13,5.17-2.64,1.41-5.47,2.48-8.48,3.21s-5.96,1.1-8.83,1.1c-5.09,0-9.73-1.07-13.95-3.21-4.22-2.14-7.85-4.93-10.89-8.38-3.05-3.45-5.42-7.36-7.13-11.74-1.71-4.38-2.56-8.85-2.56-13.4Z" fill="#ca0016" stroke-width="0"/><path d="M147.03,60.67v12.14h-49.48V1.56h48.58v12.14h-34.73v17.16h30.01v11.24h-30.01v18.57h35.63Z" fill="#ca0016" stroke-width="0"/><path d="M232.74,7.78h-25.39v65.04h-7.03V7.78h-25.39V1.56h57.81v6.22Z" fill="#235789" stroke-width="0"/><path d="M243.38,72.81V1.56h30.11c3.08,0,5.9.65,8.48,1.96,2.58,1.3,4.8,3.01,6.67,5.12,1.87,2.11,3.33,4.5,4.37,7.18,1.04,2.68,1.55,5.39,1.55,8.13s-.38,5.1-1.15,7.48c-.77,2.38-1.84,4.52-3.21,6.42-1.37,1.91-3.03,3.51-4.97,4.82-1.94,1.3-4.12,2.19-6.52,2.66l17.46,27.5h-7.93l-16.76-26.29h-21.08v26.29h-7.03ZM250.4,40.3h23.28c2.07,0,3.96-.45,5.67-1.35,1.71-.9,3.16-2.12,4.37-3.66s2.14-3.28,2.81-5.22c.67-1.94,1-3.98,1-6.12s-.38-4.2-1.15-6.17c-.77-1.97-1.81-3.7-3.11-5.17-1.3-1.47-2.84-2.64-4.62-3.51-1.77-.87-3.63-1.3-5.57-1.3h-22.68v32.52Z" fill="#235789" stroke-width="0"/><path d="M329.89,1.56h5.92l29.61,71.26h-7.43l-9.23-22.28h-32.02l-9.13,22.28h-7.53L329.89,1.56ZM347.15,45.01l-14.35-35.23-14.55,35.23h28.9Z" fill="#235789" stroke-width="0"/><path d="M497.19,66.59v6.22h-47.87V1.56h46.97v6.22h-39.94v25.69h34.83v5.92h-34.83v27.2h40.85Z" fill="#235789" stroke-width="0"/><path d="M510.44,72.81V1.56h30.11c3.08,0,5.9.65,8.48,1.96,2.58,1.3,4.8,3.01,6.67,5.12s3.33,4.5,4.37,7.18c1.04,2.68,1.56,5.39,1.56,8.13s-.39,5.1-1.15,7.48c-.77,2.38-1.84,4.52-3.21,6.42-1.37,1.91-3.03,3.51-4.97,4.82-1.94,1.3-4.11,2.19-6.52,2.66l17.46,27.5h-7.93l-16.76-26.29h-21.08v26.29h-7.03ZM517.46,40.3h23.28c2.07,0,3.96-.45,5.67-1.35s3.16-2.12,4.37-3.66c1.2-1.54,2.14-3.28,2.81-5.22.67-1.94,1-3.98,1-6.12s-.39-4.2-1.15-6.17c-.77-1.97-1.81-3.7-3.11-5.17-1.3-1.47-2.84-2.64-4.62-3.51-1.77-.87-3.63-1.3-5.57-1.3h-22.68v32.52Z" fill="#235789" stroke-width="0"/><path d="M429.36,31.31h-14.38v-14.38c0-.27-.22-.49-.49-.49h-7.13c-.27,0-.49.22-.49.49v14.38h-14.38c-.27,0-.49.22-.49.49v7.13c0,.27.22.49.49.49h14.38v14.38c0,.27.22.49.49.49h7.13c.27,0,.49-.22.49-.49v-14.38h14.38c.27,0,.49-.22.49-.49v-7.13c0-.27-.22-.49-.49-.49Z" fill="#ca0016" stroke-width="0"/></g></svg>